<mxfile host="Electron" agent="Mozilla/5.0 (Windows NT 10.0; Win64; x64) AppleWebKit/537.36 (KHTML, like Gecko) draw.io/24.7.17 Chrome/128.0.6613.36 Electron/32.0.1 Safari/537.36" version="24.7.17">
  <diagram name="Page-1" id="e7e014a7-5840-1c2e-5031-d8a46d1fe8dd">
    <mxGraphModel dx="2072" dy="2012" grid="0" gridSize="10" guides="1" tooltips="1" connect="1" arrows="1" fold="1" page="0" pageScale="1" pageWidth="1169" pageHeight="826" background="none" math="0" shadow="0">
      <root>
        <mxCell id="0" />
        <mxCell id="1" parent="0" />
        <mxCell id="bjYzy6PgfHMjACtRG2kG-44" value="" style="ellipse;html=1;shape=startState;fillColor=#000000;strokeColor=#ff0000;" parent="1" vertex="1">
          <mxGeometry x="73" y="78" width="30" height="30" as="geometry" />
        </mxCell>
        <mxCell id="bjYzy6PgfHMjACtRG2kG-45" value="" style="edgeStyle=orthogonalEdgeStyle;html=1;verticalAlign=bottom;endArrow=open;endSize=8;strokeColor=#ff0000;rounded=0;" parent="1" source="bjYzy6PgfHMjACtRG2kG-44" edge="1">
          <mxGeometry relative="1" as="geometry">
            <mxPoint x="88" y="168" as="targetPoint" />
          </mxGeometry>
        </mxCell>
        <mxCell id="bjYzy6PgfHMjACtRG2kG-46" value="Start" style="text;html=1;align=center;verticalAlign=middle;whiteSpace=wrap;rounded=0;" parent="1" vertex="1">
          <mxGeometry x="58" y="48" width="60" height="30" as="geometry" />
        </mxCell>
        <mxCell id="bjYzy6PgfHMjACtRG2kG-47" value="Login" style="text;strokeColor=none;fillColor=none;html=1;fontSize=24;fontStyle=1;verticalAlign=middle;align=center;" parent="1" vertex="1">
          <mxGeometry x="38" y="8" width="100" height="40" as="geometry" />
        </mxCell>
        <mxCell id="bjYzy6PgfHMjACtRG2kG-56" value="" style="edgeStyle=orthogonalEdgeStyle;rounded=0;orthogonalLoop=1;jettySize=auto;html=1;" parent="1" source="bjYzy6PgfHMjACtRG2kG-54" target="bjYzy6PgfHMjACtRG2kG-55" edge="1">
          <mxGeometry relative="1" as="geometry" />
        </mxCell>
        <mxCell id="bjYzy6PgfHMjACtRG2kG-54" value="Login Page Prompt" style="rounded=1;whiteSpace=wrap;html=1;" parent="1" vertex="1">
          <mxGeometry x="28" y="168" width="120" height="60" as="geometry" />
        </mxCell>
        <mxCell id="bjYzy6PgfHMjACtRG2kG-59" value="" style="edgeStyle=orthogonalEdgeStyle;rounded=0;orthogonalLoop=1;jettySize=auto;html=1;" parent="1" source="bjYzy6PgfHMjACtRG2kG-55" target="bjYzy6PgfHMjACtRG2kG-58" edge="1">
          <mxGeometry relative="1" as="geometry" />
        </mxCell>
        <mxCell id="bjYzy6PgfHMjACtRG2kG-74" value="" style="edgeStyle=orthogonalEdgeStyle;rounded=0;orthogonalLoop=1;jettySize=auto;html=1;exitX=0.5;exitY=1;exitDx=0;exitDy=0;" parent="1" source="bjYzy6PgfHMjACtRG2kG-55" target="bjYzy6PgfHMjACtRG2kG-73" edge="1">
          <mxGeometry relative="1" as="geometry" />
        </mxCell>
        <mxCell id="bjYzy6PgfHMjACtRG2kG-55" value="Enter Valid Credentials?" style="rhombus;whiteSpace=wrap;html=1;rounded=1;" parent="1" vertex="1">
          <mxGeometry x="43" y="268" width="90" height="90" as="geometry" />
        </mxCell>
        <mxCell id="bjYzy6PgfHMjACtRG2kG-57" value="No" style="text;html=1;align=center;verticalAlign=middle;whiteSpace=wrap;rounded=0;" parent="1" vertex="1">
          <mxGeometry x="103" y="268" width="60" height="30" as="geometry" />
        </mxCell>
        <mxCell id="bjYzy6PgfHMjACtRG2kG-61" value="" style="edgeStyle=orthogonalEdgeStyle;rounded=0;orthogonalLoop=1;jettySize=auto;html=1;" parent="1" source="bjYzy6PgfHMjACtRG2kG-58" target="bjYzy6PgfHMjACtRG2kG-60" edge="1">
          <mxGeometry relative="1" as="geometry" />
        </mxCell>
        <mxCell id="bjYzy6PgfHMjACtRG2kG-58" value="Wrong Password Entered" style="whiteSpace=wrap;html=1;rounded=1;" parent="1" vertex="1">
          <mxGeometry x="168" y="283" width="120" height="60" as="geometry" />
        </mxCell>
        <mxCell id="bjYzy6PgfHMjACtRG2kG-70" value="" style="edgeStyle=orthogonalEdgeStyle;rounded=0;orthogonalLoop=1;jettySize=auto;html=1;" parent="1" source="bjYzy6PgfHMjACtRG2kG-60" target="bjYzy6PgfHMjACtRG2kG-69" edge="1">
          <mxGeometry relative="1" as="geometry" />
        </mxCell>
        <mxCell id="bjYzy6PgfHMjACtRG2kG-60" value="Retry?" style="rhombus;whiteSpace=wrap;html=1;rounded=1;" parent="1" vertex="1">
          <mxGeometry x="328" y="273" width="80" height="80" as="geometry" />
        </mxCell>
        <mxCell id="bjYzy6PgfHMjACtRG2kG-62" value="No" style="text;html=1;align=center;verticalAlign=middle;whiteSpace=wrap;rounded=0;" parent="1" vertex="1">
          <mxGeometry x="378" y="323" width="60" height="30" as="geometry" />
        </mxCell>
        <mxCell id="bjYzy6PgfHMjACtRG2kG-67" value="" style="endArrow=classic;html=1;rounded=0;entryX=1;entryY=0.5;entryDx=0;entryDy=0;" parent="1" target="bjYzy6PgfHMjACtRG2kG-44" edge="1">
          <mxGeometry width="50" height="50" relative="1" as="geometry">
            <mxPoint x="368" y="278" as="sourcePoint" />
            <mxPoint x="98" y="58" as="targetPoint" />
            <Array as="points">
              <mxPoint x="368" y="93" />
            </Array>
          </mxGeometry>
        </mxCell>
        <mxCell id="bjYzy6PgfHMjACtRG2kG-68" value="Yes" style="text;html=1;align=center;verticalAlign=middle;whiteSpace=wrap;rounded=0;" parent="1" vertex="1">
          <mxGeometry x="308" y="258" width="60" height="30" as="geometry" />
        </mxCell>
        <mxCell id="bjYzy6PgfHMjACtRG2kG-69" value="" style="ellipse;html=1;shape=endState;fillColor=#000000;strokeColor=#ff0000;" parent="1" vertex="1">
          <mxGeometry x="448" y="298" width="30" height="30" as="geometry" />
        </mxCell>
        <mxCell id="bjYzy6PgfHMjACtRG2kG-71" value="End" style="text;html=1;align=center;verticalAlign=middle;whiteSpace=wrap;rounded=0;" parent="1" vertex="1">
          <mxGeometry x="478" y="298" width="40" height="30" as="geometry" />
        </mxCell>
        <mxCell id="bjYzy6PgfHMjACtRG2kG-72" value="Yes" style="text;html=1;align=center;verticalAlign=middle;whiteSpace=wrap;rounded=0;" parent="1" vertex="1">
          <mxGeometry x="13" y="328" width="60" height="30" as="geometry" />
        </mxCell>
        <mxCell id="bjYzy6PgfHMjACtRG2kG-76" value="" style="edgeStyle=orthogonalEdgeStyle;rounded=0;orthogonalLoop=1;jettySize=auto;html=1;" parent="1" source="bjYzy6PgfHMjACtRG2kG-73" target="bjYzy6PgfHMjACtRG2kG-75" edge="1">
          <mxGeometry relative="1" as="geometry" />
        </mxCell>
        <mxCell id="bjYzy6PgfHMjACtRG2kG-73" value="Enter Landing Page" style="whiteSpace=wrap;html=1;rounded=1;" parent="1" vertex="1">
          <mxGeometry x="28" y="408" width="120" height="60" as="geometry" />
        </mxCell>
        <mxCell id="bjYzy6PgfHMjACtRG2kG-75" value="" style="ellipse;html=1;shape=endState;fillColor=#000000;strokeColor=#ff0000;" parent="1" vertex="1">
          <mxGeometry x="73" y="508" width="30" height="30" as="geometry" />
        </mxCell>
        <mxCell id="bjYzy6PgfHMjACtRG2kG-77" value="End" style="text;html=1;align=center;verticalAlign=middle;whiteSpace=wrap;rounded=0;" parent="1" vertex="1">
          <mxGeometry x="68" y="548" width="40" height="30" as="geometry" />
        </mxCell>
        <mxCell id="bjYzy6PgfHMjACtRG2kG-81" value="Template System" style="text;strokeColor=none;fillColor=none;html=1;fontSize=24;fontStyle=1;verticalAlign=middle;align=center;" parent="1" vertex="1">
          <mxGeometry x="435" y="-691" width="100" height="40" as="geometry" />
        </mxCell>
        <mxCell id="bjYzy6PgfHMjACtRG2kG-90" value="" style="ellipse;html=1;shape=startState;fillColor=#000000;strokeColor=#ff0000;" parent="1" vertex="1">
          <mxGeometry x="470" y="-601" width="30" height="30" as="geometry" />
        </mxCell>
        <mxCell id="bjYzy6PgfHMjACtRG2kG-91" value="" style="edgeStyle=orthogonalEdgeStyle;html=1;verticalAlign=bottom;endArrow=open;endSize=8;strokeColor=#ff0000;rounded=0;" parent="1" source="bjYzy6PgfHMjACtRG2kG-90" edge="1">
          <mxGeometry relative="1" as="geometry">
            <mxPoint x="485" y="-511" as="targetPoint" />
          </mxGeometry>
        </mxCell>
        <mxCell id="bjYzy6PgfHMjACtRG2kG-92" value="Start" style="text;html=1;align=center;verticalAlign=middle;whiteSpace=wrap;rounded=0;" parent="1" vertex="1">
          <mxGeometry x="455" y="-631" width="60" height="30" as="geometry" />
        </mxCell>
        <mxCell id="Fjj-2CB6_kdFmA6w3Uss-2" value="" style="edgeStyle=orthogonalEdgeStyle;rounded=0;orthogonalLoop=1;jettySize=auto;html=1;" edge="1" parent="1" source="bjYzy6PgfHMjACtRG2kG-94" target="Fjj-2CB6_kdFmA6w3Uss-1">
          <mxGeometry relative="1" as="geometry" />
        </mxCell>
        <mxCell id="bjYzy6PgfHMjACtRG2kG-94" value="Template Page" style="rounded=1;whiteSpace=wrap;html=1;" parent="1" vertex="1">
          <mxGeometry x="425" y="-506" width="120" height="60" as="geometry" />
        </mxCell>
        <mxCell id="Fjj-2CB6_kdFmA6w3Uss-10" value="" style="edgeStyle=orthogonalEdgeStyle;rounded=0;orthogonalLoop=1;jettySize=auto;html=1;" edge="1" parent="1" source="Fjj-2CB6_kdFmA6w3Uss-1">
          <mxGeometry relative="1" as="geometry">
            <mxPoint x="571" y="-366" as="targetPoint" />
          </mxGeometry>
        </mxCell>
        <mxCell id="Fjj-2CB6_kdFmA6w3Uss-21" value="" style="edgeStyle=orthogonalEdgeStyle;rounded=0;orthogonalLoop=1;jettySize=auto;html=1;entryX=0.5;entryY=0;entryDx=0;entryDy=0;" edge="1" parent="1" source="Fjj-2CB6_kdFmA6w3Uss-1" target="Fjj-2CB6_kdFmA6w3Uss-22">
          <mxGeometry relative="1" as="geometry">
            <mxPoint x="485.0476190476188" y="-294" as="targetPoint" />
          </mxGeometry>
        </mxCell>
        <mxCell id="Fjj-2CB6_kdFmA6w3Uss-1" value="Templates Found?" style="rhombus;whiteSpace=wrap;html=1;rounded=1;" vertex="1" parent="1">
          <mxGeometry x="444" y="-406" width="82" height="80" as="geometry" />
        </mxCell>
        <mxCell id="Fjj-2CB6_kdFmA6w3Uss-6" value="Yes" style="text;html=1;align=center;verticalAlign=middle;whiteSpace=wrap;rounded=0;" vertex="1" parent="1">
          <mxGeometry x="425" y="-348" width="60" height="30" as="geometry" />
        </mxCell>
        <mxCell id="Fjj-2CB6_kdFmA6w3Uss-8" value="No" style="text;html=1;align=center;verticalAlign=middle;whiteSpace=wrap;rounded=0;" vertex="1" parent="1">
          <mxGeometry x="487" y="-411" width="60" height="30" as="geometry" />
        </mxCell>
        <mxCell id="Fjj-2CB6_kdFmA6w3Uss-13" value="" style="edgeStyle=orthogonalEdgeStyle;rounded=0;orthogonalLoop=1;jettySize=auto;html=1;" edge="1" parent="1" source="Fjj-2CB6_kdFmA6w3Uss-11" target="Fjj-2CB6_kdFmA6w3Uss-12">
          <mxGeometry relative="1" as="geometry" />
        </mxCell>
        <mxCell id="Fjj-2CB6_kdFmA6w3Uss-11" value="Add a Template Pop-Up" style="rounded=1;whiteSpace=wrap;html=1;" vertex="1" parent="1">
          <mxGeometry x="574" y="-396" width="120" height="60" as="geometry" />
        </mxCell>
        <mxCell id="Fjj-2CB6_kdFmA6w3Uss-12" value="Are you Sure ?" style="rhombus;whiteSpace=wrap;html=1;rounded=1;" vertex="1" parent="1">
          <mxGeometry x="739" y="-406" width="94" height="81" as="geometry" />
        </mxCell>
        <mxCell id="Fjj-2CB6_kdFmA6w3Uss-14" value="Yes" style="text;html=1;align=center;verticalAlign=middle;whiteSpace=wrap;rounded=0;" vertex="1" parent="1">
          <mxGeometry x="726" y="-348" width="60" height="30" as="geometry" />
        </mxCell>
        <mxCell id="Fjj-2CB6_kdFmA6w3Uss-15" value="No" style="text;html=1;align=center;verticalAlign=middle;whiteSpace=wrap;rounded=0;" vertex="1" parent="1">
          <mxGeometry x="726" y="-411" width="60" height="30" as="geometry" />
        </mxCell>
        <mxCell id="Fjj-2CB6_kdFmA6w3Uss-16" value="" style="endArrow=classic;html=1;rounded=0;entryX=1;entryY=0.5;entryDx=0;entryDy=0;exitX=0.5;exitY=0;exitDx=0;exitDy=0;" edge="1" parent="1" source="Fjj-2CB6_kdFmA6w3Uss-12" target="bjYzy6PgfHMjACtRG2kG-90">
          <mxGeometry width="50" height="50" relative="1" as="geometry">
            <mxPoint x="612" y="-528" as="sourcePoint" />
            <mxPoint x="662" y="-578" as="targetPoint" />
            <Array as="points">
              <mxPoint x="786" y="-586" />
            </Array>
          </mxGeometry>
        </mxCell>
        <mxCell id="Fjj-2CB6_kdFmA6w3Uss-27" value="" style="edgeStyle=orthogonalEdgeStyle;rounded=0;orthogonalLoop=1;jettySize=auto;html=1;" edge="1" parent="1" source="Fjj-2CB6_kdFmA6w3Uss-17" target="Fjj-2CB6_kdFmA6w3Uss-26">
          <mxGeometry relative="1" as="geometry" />
        </mxCell>
        <mxCell id="Fjj-2CB6_kdFmA6w3Uss-32" value="" style="edgeStyle=orthogonalEdgeStyle;rounded=0;orthogonalLoop=1;jettySize=auto;html=1;" edge="1" parent="1" source="Fjj-2CB6_kdFmA6w3Uss-17" target="Fjj-2CB6_kdFmA6w3Uss-31">
          <mxGeometry relative="1" as="geometry" />
        </mxCell>
        <mxCell id="Fjj-2CB6_kdFmA6w3Uss-17" value="View All Available Templates" style="whiteSpace=wrap;html=1;rounded=1;" vertex="1" parent="1">
          <mxGeometry x="425" y="-191" width="120" height="60" as="geometry" />
        </mxCell>
        <mxCell id="Fjj-2CB6_kdFmA6w3Uss-23" value="" style="edgeStyle=orthogonalEdgeStyle;rounded=0;orthogonalLoop=1;jettySize=auto;html=1;" edge="1" parent="1" source="Fjj-2CB6_kdFmA6w3Uss-22" target="Fjj-2CB6_kdFmA6w3Uss-17">
          <mxGeometry relative="1" as="geometry" />
        </mxCell>
        <mxCell id="Fjj-2CB6_kdFmA6w3Uss-22" value="Refresh Templates Listing" style="whiteSpace=wrap;html=1;rounded=1;" vertex="1" parent="1">
          <mxGeometry x="425" y="-288" width="120" height="60" as="geometry" />
        </mxCell>
        <mxCell id="Fjj-2CB6_kdFmA6w3Uss-25" value="" style="endArrow=classic;html=1;rounded=0;entryX=1;entryY=0.5;entryDx=0;entryDy=0;exitX=0.5;exitY=1;exitDx=0;exitDy=0;" edge="1" parent="1" source="Fjj-2CB6_kdFmA6w3Uss-12" target="Fjj-2CB6_kdFmA6w3Uss-17">
          <mxGeometry width="50" height="50" relative="1" as="geometry">
            <mxPoint x="701" y="-140" as="sourcePoint" />
            <mxPoint x="751" y="-190" as="targetPoint" />
            <Array as="points">
              <mxPoint x="786" y="-161" />
            </Array>
          </mxGeometry>
        </mxCell>
        <mxCell id="Fjj-2CB6_kdFmA6w3Uss-26" value="" style="ellipse;html=1;shape=endState;fillColor=#000000;strokeColor=#ff0000;" vertex="1" parent="1">
          <mxGeometry x="470" y="-94" width="30" height="30" as="geometry" />
        </mxCell>
        <mxCell id="Fjj-2CB6_kdFmA6w3Uss-28" value="End" style="text;html=1;align=center;verticalAlign=middle;whiteSpace=wrap;rounded=0;" vertex="1" parent="1">
          <mxGeometry x="465" y="-57" width="40" height="30" as="geometry" />
        </mxCell>
        <mxCell id="Fjj-2CB6_kdFmA6w3Uss-38" value="" style="edgeStyle=orthogonalEdgeStyle;rounded=0;orthogonalLoop=1;jettySize=auto;html=1;" edge="1" parent="1" source="Fjj-2CB6_kdFmA6w3Uss-31" target="Fjj-2CB6_kdFmA6w3Uss-37">
          <mxGeometry relative="1" as="geometry" />
        </mxCell>
        <mxCell id="Fjj-2CB6_kdFmA6w3Uss-31" value="Edit Traveller Revision?" style="rhombus;whiteSpace=wrap;html=1;rounded=1;" vertex="1" parent="1">
          <mxGeometry x="285" y="-202.5" width="95" height="83" as="geometry" />
        </mxCell>
        <mxCell id="Fjj-2CB6_kdFmA6w3Uss-33" value="Yes" style="text;html=1;align=center;verticalAlign=middle;whiteSpace=wrap;rounded=0;" vertex="1" parent="1">
          <mxGeometry x="269" y="-211" width="60" height="30" as="geometry" />
        </mxCell>
        <mxCell id="Fjj-2CB6_kdFmA6w3Uss-34" value="No" style="text;html=1;align=center;verticalAlign=middle;whiteSpace=wrap;rounded=0;" vertex="1" parent="1">
          <mxGeometry x="338" y="-149.5" width="60" height="30" as="geometry" />
        </mxCell>
        <mxCell id="Fjj-2CB6_kdFmA6w3Uss-36" value="" style="endArrow=classic;html=1;rounded=0;entryX=0;entryY=0.5;entryDx=0;entryDy=0;exitX=0.5;exitY=1;exitDx=0;exitDy=0;" edge="1" parent="1" source="Fjj-2CB6_kdFmA6w3Uss-31" target="Fjj-2CB6_kdFmA6w3Uss-26">
          <mxGeometry width="50" height="50" relative="1" as="geometry">
            <mxPoint x="348" y="-34" as="sourcePoint" />
            <mxPoint x="398" y="-84" as="targetPoint" />
            <Array as="points">
              <mxPoint x="333" y="-79" />
            </Array>
          </mxGeometry>
        </mxCell>
        <mxCell id="Fjj-2CB6_kdFmA6w3Uss-40" value="" style="edgeStyle=orthogonalEdgeStyle;rounded=0;orthogonalLoop=1;jettySize=auto;html=1;" edge="1" parent="1" source="Fjj-2CB6_kdFmA6w3Uss-37" target="Fjj-2CB6_kdFmA6w3Uss-39">
          <mxGeometry relative="1" as="geometry" />
        </mxCell>
        <mxCell id="Fjj-2CB6_kdFmA6w3Uss-37" value="Traveller Revision Page" style="whiteSpace=wrap;html=1;rounded=1;" vertex="1" parent="1">
          <mxGeometry x="120" y="-191" width="120" height="60" as="geometry" />
        </mxCell>
        <mxCell id="Fjj-2CB6_kdFmA6w3Uss-39" value="Are You Sure?" style="rhombus;whiteSpace=wrap;html=1;rounded=1;" vertex="1" parent="1">
          <mxGeometry x="134" y="-299" width="92" height="82" as="geometry" />
        </mxCell>
        <mxCell id="Fjj-2CB6_kdFmA6w3Uss-41" value="Yes" style="text;html=1;align=center;verticalAlign=middle;whiteSpace=wrap;rounded=0;" vertex="1" parent="1">
          <mxGeometry x="193" y="-299" width="60" height="30" as="geometry" />
        </mxCell>
        <mxCell id="Fjj-2CB6_kdFmA6w3Uss-42" value="" style="endArrow=classic;html=1;rounded=0;entryX=0;entryY=0.5;entryDx=0;entryDy=0;exitX=1;exitY=0.5;exitDx=0;exitDy=0;" edge="1" parent="1" source="Fjj-2CB6_kdFmA6w3Uss-39" target="Fjj-2CB6_kdFmA6w3Uss-22">
          <mxGeometry width="50" height="50" relative="1" as="geometry">
            <mxPoint x="297" y="-216" as="sourcePoint" />
            <mxPoint x="347" y="-266" as="targetPoint" />
          </mxGeometry>
        </mxCell>
        <mxCell id="Fjj-2CB6_kdFmA6w3Uss-43" value="No" style="text;html=1;align=center;verticalAlign=middle;whiteSpace=wrap;rounded=0;" vertex="1" parent="1">
          <mxGeometry x="108" y="-299" width="60" height="30" as="geometry" />
        </mxCell>
        <mxCell id="Fjj-2CB6_kdFmA6w3Uss-44" value="" style="endArrow=none;html=1;rounded=0;entryX=0;entryY=0.5;entryDx=0;entryDy=0;" edge="1" parent="1" target="Fjj-2CB6_kdFmA6w3Uss-39">
          <mxGeometry width="50" height="50" relative="1" as="geometry">
            <mxPoint x="58" y="-258" as="sourcePoint" />
            <mxPoint x="91" y="-262" as="targetPoint" />
          </mxGeometry>
        </mxCell>
        <mxCell id="Fjj-2CB6_kdFmA6w3Uss-45" value="" style="endArrow=none;html=1;rounded=0;" edge="1" parent="1">
          <mxGeometry width="50" height="50" relative="1" as="geometry">
            <mxPoint x="58" y="-80" as="sourcePoint" />
            <mxPoint x="58" y="-258" as="targetPoint" />
          </mxGeometry>
        </mxCell>
        <mxCell id="Fjj-2CB6_kdFmA6w3Uss-47" value="(Traveller Revision)" style="text;strokeColor=none;fillColor=none;html=1;fontSize=24;fontStyle=1;verticalAlign=middle;align=center;" vertex="1" parent="1">
          <mxGeometry x="435" y="-664" width="100" height="40" as="geometry" />
        </mxCell>
        <mxCell id="Fjj-2CB6_kdFmA6w3Uss-48" value="" style="endArrow=classic;html=1;rounded=0;entryX=0;entryY=0.5;entryDx=0;entryDy=0;" edge="1" parent="1">
          <mxGeometry width="50" height="50" relative="1" as="geometry">
            <mxPoint x="58" y="-79" as="sourcePoint" />
            <mxPoint x="470" y="-79.5" as="targetPoint" />
            <Array as="points">
              <mxPoint x="333" y="-79.5" />
            </Array>
          </mxGeometry>
        </mxCell>
        <mxCell id="Fjj-2CB6_kdFmA6w3Uss-49" value="Template System" style="text;strokeColor=none;fillColor=none;html=1;fontSize=24;fontStyle=1;verticalAlign=middle;align=center;" vertex="1" parent="1">
          <mxGeometry x="553" y="8" width="100" height="40" as="geometry" />
        </mxCell>
        <mxCell id="Fjj-2CB6_kdFmA6w3Uss-50" value="" style="ellipse;html=1;shape=startState;fillColor=#000000;strokeColor=#ff0000;" vertex="1" parent="1">
          <mxGeometry x="588" y="75" width="30" height="30" as="geometry" />
        </mxCell>
        <mxCell id="Fjj-2CB6_kdFmA6w3Uss-51" value="" style="edgeStyle=orthogonalEdgeStyle;html=1;verticalAlign=bottom;endArrow=open;endSize=8;strokeColor=#ff0000;rounded=0;" edge="1" parent="1" source="Fjj-2CB6_kdFmA6w3Uss-50">
          <mxGeometry relative="1" as="geometry">
            <mxPoint x="603" y="165" as="targetPoint" />
          </mxGeometry>
        </mxCell>
        <mxCell id="Fjj-2CB6_kdFmA6w3Uss-52" value="Start" style="text;html=1;align=center;verticalAlign=middle;whiteSpace=wrap;rounded=0;" vertex="1" parent="1">
          <mxGeometry x="573" y="45" width="60" height="30" as="geometry" />
        </mxCell>
        <mxCell id="Fjj-2CB6_kdFmA6w3Uss-53" value="" style="edgeStyle=orthogonalEdgeStyle;rounded=0;orthogonalLoop=1;jettySize=auto;html=1;" edge="1" parent="1" source="Fjj-2CB6_kdFmA6w3Uss-54" target="Fjj-2CB6_kdFmA6w3Uss-57">
          <mxGeometry relative="1" as="geometry" />
        </mxCell>
        <mxCell id="Fjj-2CB6_kdFmA6w3Uss-54" value="Template Page" style="rounded=1;whiteSpace=wrap;html=1;" vertex="1" parent="1">
          <mxGeometry x="543" y="170" width="120" height="60" as="geometry" />
        </mxCell>
        <mxCell id="Fjj-2CB6_kdFmA6w3Uss-55" value="" style="edgeStyle=orthogonalEdgeStyle;rounded=0;orthogonalLoop=1;jettySize=auto;html=1;" edge="1" parent="1" source="Fjj-2CB6_kdFmA6w3Uss-57">
          <mxGeometry relative="1" as="geometry">
            <mxPoint x="688.9999999999998" y="310" as="targetPoint" />
          </mxGeometry>
        </mxCell>
        <mxCell id="Fjj-2CB6_kdFmA6w3Uss-56" value="" style="edgeStyle=orthogonalEdgeStyle;rounded=0;orthogonalLoop=1;jettySize=auto;html=1;entryX=0.5;entryY=0;entryDx=0;entryDy=0;" edge="1" parent="1" source="Fjj-2CB6_kdFmA6w3Uss-57" target="Fjj-2CB6_kdFmA6w3Uss-70">
          <mxGeometry relative="1" as="geometry">
            <mxPoint x="603.0476190476188" y="382" as="targetPoint" />
          </mxGeometry>
        </mxCell>
        <mxCell id="Fjj-2CB6_kdFmA6w3Uss-57" value="Templates Found?" style="rhombus;whiteSpace=wrap;html=1;rounded=1;" vertex="1" parent="1">
          <mxGeometry x="562" y="270" width="82" height="80" as="geometry" />
        </mxCell>
        <mxCell id="Fjj-2CB6_kdFmA6w3Uss-58" value="Yes" style="text;html=1;align=center;verticalAlign=middle;whiteSpace=wrap;rounded=0;" vertex="1" parent="1">
          <mxGeometry x="543" y="328" width="60" height="30" as="geometry" />
        </mxCell>
        <mxCell id="Fjj-2CB6_kdFmA6w3Uss-59" value="No" style="text;html=1;align=center;verticalAlign=middle;whiteSpace=wrap;rounded=0;" vertex="1" parent="1">
          <mxGeometry x="605" y="265" width="60" height="30" as="geometry" />
        </mxCell>
        <mxCell id="Fjj-2CB6_kdFmA6w3Uss-60" value="" style="edgeStyle=orthogonalEdgeStyle;rounded=0;orthogonalLoop=1;jettySize=auto;html=1;" edge="1" parent="1" source="Fjj-2CB6_kdFmA6w3Uss-61" target="Fjj-2CB6_kdFmA6w3Uss-62">
          <mxGeometry relative="1" as="geometry" />
        </mxCell>
        <mxCell id="Fjj-2CB6_kdFmA6w3Uss-61" value="Add a Template Pop-Up" style="rounded=1;whiteSpace=wrap;html=1;" vertex="1" parent="1">
          <mxGeometry x="692" y="280" width="120" height="60" as="geometry" />
        </mxCell>
        <mxCell id="Fjj-2CB6_kdFmA6w3Uss-62" value="Are you Sure ?" style="rhombus;whiteSpace=wrap;html=1;rounded=1;" vertex="1" parent="1">
          <mxGeometry x="857" y="270" width="94" height="81" as="geometry" />
        </mxCell>
        <mxCell id="Fjj-2CB6_kdFmA6w3Uss-63" value="Yes" style="text;html=1;align=center;verticalAlign=middle;whiteSpace=wrap;rounded=0;" vertex="1" parent="1">
          <mxGeometry x="844" y="328" width="60" height="30" as="geometry" />
        </mxCell>
        <mxCell id="Fjj-2CB6_kdFmA6w3Uss-64" value="No" style="text;html=1;align=center;verticalAlign=middle;whiteSpace=wrap;rounded=0;" vertex="1" parent="1">
          <mxGeometry x="844" y="265" width="60" height="30" as="geometry" />
        </mxCell>
        <mxCell id="Fjj-2CB6_kdFmA6w3Uss-65" value="" style="endArrow=classic;html=1;rounded=0;entryX=1;entryY=0.5;entryDx=0;entryDy=0;exitX=0.5;exitY=0;exitDx=0;exitDy=0;" edge="1" parent="1" source="Fjj-2CB6_kdFmA6w3Uss-62" target="Fjj-2CB6_kdFmA6w3Uss-50">
          <mxGeometry width="50" height="50" relative="1" as="geometry">
            <mxPoint x="730" y="148" as="sourcePoint" />
            <mxPoint x="780" y="98" as="targetPoint" />
            <Array as="points">
              <mxPoint x="904" y="90" />
            </Array>
          </mxGeometry>
        </mxCell>
        <mxCell id="Fjj-2CB6_kdFmA6w3Uss-66" value="" style="edgeStyle=orthogonalEdgeStyle;rounded=0;orthogonalLoop=1;jettySize=auto;html=1;" edge="1" parent="1" source="Fjj-2CB6_kdFmA6w3Uss-68" target="Fjj-2CB6_kdFmA6w3Uss-72">
          <mxGeometry relative="1" as="geometry" />
        </mxCell>
        <mxCell id="Fjj-2CB6_kdFmA6w3Uss-68" value="View All Available Templates" style="whiteSpace=wrap;html=1;rounded=1;" vertex="1" parent="1">
          <mxGeometry x="543" y="485" width="120" height="60" as="geometry" />
        </mxCell>
        <mxCell id="Fjj-2CB6_kdFmA6w3Uss-69" value="" style="edgeStyle=orthogonalEdgeStyle;rounded=0;orthogonalLoop=1;jettySize=auto;html=1;" edge="1" parent="1" source="Fjj-2CB6_kdFmA6w3Uss-70" target="Fjj-2CB6_kdFmA6w3Uss-68">
          <mxGeometry relative="1" as="geometry" />
        </mxCell>
        <mxCell id="Fjj-2CB6_kdFmA6w3Uss-70" value="Refresh Templates Listing" style="whiteSpace=wrap;html=1;rounded=1;" vertex="1" parent="1">
          <mxGeometry x="543" y="388" width="120" height="60" as="geometry" />
        </mxCell>
        <mxCell id="Fjj-2CB6_kdFmA6w3Uss-71" value="" style="endArrow=classic;html=1;rounded=0;entryX=1;entryY=0.5;entryDx=0;entryDy=0;exitX=0.5;exitY=1;exitDx=0;exitDy=0;" edge="1" parent="1" source="Fjj-2CB6_kdFmA6w3Uss-62" target="Fjj-2CB6_kdFmA6w3Uss-68">
          <mxGeometry width="50" height="50" relative="1" as="geometry">
            <mxPoint x="819" y="536" as="sourcePoint" />
            <mxPoint x="869" y="486" as="targetPoint" />
            <Array as="points">
              <mxPoint x="904" y="515" />
            </Array>
          </mxGeometry>
        </mxCell>
        <mxCell id="Fjj-2CB6_kdFmA6w3Uss-72" value="" style="ellipse;html=1;shape=endState;fillColor=#000000;strokeColor=#ff0000;" vertex="1" parent="1">
          <mxGeometry x="588" y="582" width="30" height="30" as="geometry" />
        </mxCell>
        <mxCell id="Fjj-2CB6_kdFmA6w3Uss-73" value="End" style="text;html=1;align=center;verticalAlign=middle;whiteSpace=wrap;rounded=0;" vertex="1" parent="1">
          <mxGeometry x="583" y="615" width="40" height="30" as="geometry" />
        </mxCell>
        <mxCell id="Fjj-2CB6_kdFmA6w3Uss-90" value="Template System" style="text;strokeColor=none;fillColor=none;html=1;fontSize=24;fontStyle=1;verticalAlign=middle;align=center;" vertex="1" parent="1">
          <mxGeometry x="1088" y="-358" width="100" height="40" as="geometry" />
        </mxCell>
        <mxCell id="Fjj-2CB6_kdFmA6w3Uss-91" value="" style="ellipse;html=1;shape=startState;fillColor=#000000;strokeColor=#ff0000;" vertex="1" parent="1">
          <mxGeometry x="1123" y="-267" width="30" height="30" as="geometry" />
        </mxCell>
        <mxCell id="Fjj-2CB6_kdFmA6w3Uss-92" value="" style="edgeStyle=orthogonalEdgeStyle;html=1;verticalAlign=bottom;endArrow=open;endSize=8;strokeColor=#ff0000;rounded=0;" edge="1" parent="1" source="Fjj-2CB6_kdFmA6w3Uss-91">
          <mxGeometry relative="1" as="geometry">
            <mxPoint x="1138" y="-177" as="targetPoint" />
          </mxGeometry>
        </mxCell>
        <mxCell id="Fjj-2CB6_kdFmA6w3Uss-93" value="Start" style="text;html=1;align=center;verticalAlign=middle;whiteSpace=wrap;rounded=0;" vertex="1" parent="1">
          <mxGeometry x="1108" y="-297" width="60" height="30" as="geometry" />
        </mxCell>
        <mxCell id="Fjj-2CB6_kdFmA6w3Uss-94" value="" style="edgeStyle=orthogonalEdgeStyle;rounded=0;orthogonalLoop=1;jettySize=auto;html=1;" edge="1" parent="1" source="Fjj-2CB6_kdFmA6w3Uss-95" target="Fjj-2CB6_kdFmA6w3Uss-98">
          <mxGeometry relative="1" as="geometry" />
        </mxCell>
        <mxCell id="Fjj-2CB6_kdFmA6w3Uss-95" value="Template Page" style="rounded=1;whiteSpace=wrap;html=1;" vertex="1" parent="1">
          <mxGeometry x="1078" y="-172" width="120" height="60" as="geometry" />
        </mxCell>
        <mxCell id="Fjj-2CB6_kdFmA6w3Uss-96" value="" style="edgeStyle=orthogonalEdgeStyle;rounded=0;orthogonalLoop=1;jettySize=auto;html=1;" edge="1" parent="1" source="Fjj-2CB6_kdFmA6w3Uss-98">
          <mxGeometry relative="1" as="geometry">
            <mxPoint x="1224" y="-32" as="targetPoint" />
          </mxGeometry>
        </mxCell>
        <mxCell id="Fjj-2CB6_kdFmA6w3Uss-97" value="" style="edgeStyle=orthogonalEdgeStyle;rounded=0;orthogonalLoop=1;jettySize=auto;html=1;entryX=0.5;entryY=0;entryDx=0;entryDy=0;" edge="1" parent="1" source="Fjj-2CB6_kdFmA6w3Uss-98" target="Fjj-2CB6_kdFmA6w3Uss-110">
          <mxGeometry relative="1" as="geometry">
            <mxPoint x="1138.0476190476188" y="40" as="targetPoint" />
          </mxGeometry>
        </mxCell>
        <mxCell id="Fjj-2CB6_kdFmA6w3Uss-98" value="Templates Found?" style="rhombus;whiteSpace=wrap;html=1;rounded=1;" vertex="1" parent="1">
          <mxGeometry x="1097" y="-72" width="82" height="80" as="geometry" />
        </mxCell>
        <mxCell id="Fjj-2CB6_kdFmA6w3Uss-99" value="Yes" style="text;html=1;align=center;verticalAlign=middle;whiteSpace=wrap;rounded=0;" vertex="1" parent="1">
          <mxGeometry x="1078" y="-14" width="60" height="30" as="geometry" />
        </mxCell>
        <mxCell id="Fjj-2CB6_kdFmA6w3Uss-100" value="No" style="text;html=1;align=center;verticalAlign=middle;whiteSpace=wrap;rounded=0;" vertex="1" parent="1">
          <mxGeometry x="1140" y="-77" width="60" height="30" as="geometry" />
        </mxCell>
        <mxCell id="Fjj-2CB6_kdFmA6w3Uss-101" value="" style="edgeStyle=orthogonalEdgeStyle;rounded=0;orthogonalLoop=1;jettySize=auto;html=1;" edge="1" parent="1" source="Fjj-2CB6_kdFmA6w3Uss-102" target="Fjj-2CB6_kdFmA6w3Uss-103">
          <mxGeometry relative="1" as="geometry" />
        </mxCell>
        <mxCell id="Fjj-2CB6_kdFmA6w3Uss-102" value="Add a Template Pop-Up" style="rounded=1;whiteSpace=wrap;html=1;" vertex="1" parent="1">
          <mxGeometry x="1227" y="-62" width="120" height="60" as="geometry" />
        </mxCell>
        <mxCell id="Fjj-2CB6_kdFmA6w3Uss-103" value="Are you Sure ?" style="rhombus;whiteSpace=wrap;html=1;rounded=1;" vertex="1" parent="1">
          <mxGeometry x="1392" y="-72" width="94" height="81" as="geometry" />
        </mxCell>
        <mxCell id="Fjj-2CB6_kdFmA6w3Uss-104" value="Yes" style="text;html=1;align=center;verticalAlign=middle;whiteSpace=wrap;rounded=0;" vertex="1" parent="1">
          <mxGeometry x="1379" y="-14" width="60" height="30" as="geometry" />
        </mxCell>
        <mxCell id="Fjj-2CB6_kdFmA6w3Uss-105" value="No" style="text;html=1;align=center;verticalAlign=middle;whiteSpace=wrap;rounded=0;" vertex="1" parent="1">
          <mxGeometry x="1379" y="-77" width="60" height="30" as="geometry" />
        </mxCell>
        <mxCell id="Fjj-2CB6_kdFmA6w3Uss-106" value="" style="endArrow=classic;html=1;rounded=0;entryX=1;entryY=0.5;entryDx=0;entryDy=0;exitX=0.5;exitY=0;exitDx=0;exitDy=0;" edge="1" parent="1" source="Fjj-2CB6_kdFmA6w3Uss-103" target="Fjj-2CB6_kdFmA6w3Uss-91">
          <mxGeometry width="50" height="50" relative="1" as="geometry">
            <mxPoint x="1265" y="-194" as="sourcePoint" />
            <mxPoint x="1315" y="-244" as="targetPoint" />
            <Array as="points">
              <mxPoint x="1439" y="-252" />
            </Array>
          </mxGeometry>
        </mxCell>
        <mxCell id="Fjj-2CB6_kdFmA6w3Uss-107" value="" style="edgeStyle=orthogonalEdgeStyle;rounded=0;orthogonalLoop=1;jettySize=auto;html=1;" edge="1" parent="1" source="Fjj-2CB6_kdFmA6w3Uss-108">
          <mxGeometry relative="1" as="geometry">
            <mxPoint x="1138" y="234" as="targetPoint" />
          </mxGeometry>
        </mxCell>
        <mxCell id="Fjj-2CB6_kdFmA6w3Uss-108" value="View All Available Templates" style="whiteSpace=wrap;html=1;rounded=1;" vertex="1" parent="1">
          <mxGeometry x="1078" y="143" width="120" height="60" as="geometry" />
        </mxCell>
        <mxCell id="Fjj-2CB6_kdFmA6w3Uss-109" value="" style="edgeStyle=orthogonalEdgeStyle;rounded=0;orthogonalLoop=1;jettySize=auto;html=1;" edge="1" parent="1" source="Fjj-2CB6_kdFmA6w3Uss-110" target="Fjj-2CB6_kdFmA6w3Uss-108">
          <mxGeometry relative="1" as="geometry" />
        </mxCell>
        <mxCell id="Fjj-2CB6_kdFmA6w3Uss-110" value="Refresh Templates Listing" style="whiteSpace=wrap;html=1;rounded=1;" vertex="1" parent="1">
          <mxGeometry x="1078" y="46" width="120" height="60" as="geometry" />
        </mxCell>
        <mxCell id="Fjj-2CB6_kdFmA6w3Uss-111" value="" style="endArrow=classic;html=1;rounded=0;entryX=1;entryY=0.5;entryDx=0;entryDy=0;exitX=0.5;exitY=1;exitDx=0;exitDy=0;" edge="1" parent="1" source="Fjj-2CB6_kdFmA6w3Uss-103" target="Fjj-2CB6_kdFmA6w3Uss-108">
          <mxGeometry width="50" height="50" relative="1" as="geometry">
            <mxPoint x="1354" y="194" as="sourcePoint" />
            <mxPoint x="1404" y="144" as="targetPoint" />
            <Array as="points">
              <mxPoint x="1439" y="173" />
            </Array>
          </mxGeometry>
        </mxCell>
        <mxCell id="Fjj-2CB6_kdFmA6w3Uss-115" value="(Submitting Traveller)" style="text;strokeColor=none;fillColor=none;html=1;fontSize=24;fontStyle=1;verticalAlign=middle;align=center;" vertex="1" parent="1">
          <mxGeometry x="1088" y="-328" width="100" height="40" as="geometry" />
        </mxCell>
        <mxCell id="Fjj-2CB6_kdFmA6w3Uss-118" value="" style="edgeStyle=orthogonalEdgeStyle;rounded=0;orthogonalLoop=1;jettySize=auto;html=1;" edge="1" parent="1" source="Fjj-2CB6_kdFmA6w3Uss-116" target="Fjj-2CB6_kdFmA6w3Uss-117">
          <mxGeometry relative="1" as="geometry" />
        </mxCell>
        <mxCell id="Fjj-2CB6_kdFmA6w3Uss-116" value="Fill out Traveller Template" style="rounded=1;whiteSpace=wrap;html=1;" vertex="1" parent="1">
          <mxGeometry x="1078" y="236" width="120" height="60" as="geometry" />
        </mxCell>
        <mxCell id="Fjj-2CB6_kdFmA6w3Uss-134" value="" style="edgeStyle=orthogonalEdgeStyle;rounded=0;orthogonalLoop=1;jettySize=auto;html=1;" edge="1" parent="1" source="Fjj-2CB6_kdFmA6w3Uss-117" target="Fjj-2CB6_kdFmA6w3Uss-122">
          <mxGeometry relative="1" as="geometry" />
        </mxCell>
        <mxCell id="Fjj-2CB6_kdFmA6w3Uss-117" value="Confirm &amp;amp; Submit?" style="rhombus;whiteSpace=wrap;html=1;rounded=1;" vertex="1" parent="1">
          <mxGeometry x="1098" y="334" width="80" height="80" as="geometry" />
        </mxCell>
        <mxCell id="Fjj-2CB6_kdFmA6w3Uss-119" value="Yes" style="text;html=1;align=center;verticalAlign=middle;whiteSpace=wrap;rounded=0;" vertex="1" parent="1">
          <mxGeometry x="1144" y="334" width="60" height="30" as="geometry" />
        </mxCell>
        <mxCell id="Fjj-2CB6_kdFmA6w3Uss-135" value="" style="edgeStyle=orthogonalEdgeStyle;rounded=0;orthogonalLoop=1;jettySize=auto;html=1;" edge="1" parent="1" source="Fjj-2CB6_kdFmA6w3Uss-122" target="Fjj-2CB6_kdFmA6w3Uss-125">
          <mxGeometry relative="1" as="geometry" />
        </mxCell>
        <mxCell id="Fjj-2CB6_kdFmA6w3Uss-122" value="Submits Traveller Form to Database" style="rounded=1;whiteSpace=wrap;html=1;" vertex="1" parent="1">
          <mxGeometry x="1221" y="344" width="120" height="60" as="geometry" />
        </mxCell>
        <mxCell id="Fjj-2CB6_kdFmA6w3Uss-124" value="No" style="text;html=1;align=center;verticalAlign=middle;whiteSpace=wrap;rounded=0;" vertex="1" parent="1">
          <mxGeometry x="1078" y="334" width="60" height="30" as="geometry" />
        </mxCell>
        <mxCell id="Fjj-2CB6_kdFmA6w3Uss-125" value="" style="ellipse;html=1;shape=endState;fillColor=#000000;strokeColor=#ff0000;" vertex="1" parent="1">
          <mxGeometry x="1397" y="359" width="30" height="30" as="geometry" />
        </mxCell>
        <mxCell id="Fjj-2CB6_kdFmA6w3Uss-127" value="End" style="text;html=1;align=center;verticalAlign=middle;whiteSpace=wrap;rounded=0;" vertex="1" parent="1">
          <mxGeometry x="1432" y="359" width="40" height="30" as="geometry" />
        </mxCell>
        <mxCell id="Fjj-2CB6_kdFmA6w3Uss-131" value="" style="endArrow=none;html=1;rounded=0;entryX=0;entryY=0.5;entryDx=0;entryDy=0;" edge="1" parent="1" target="Fjj-2CB6_kdFmA6w3Uss-117">
          <mxGeometry width="50" height="50" relative="1" as="geometry">
            <mxPoint x="1004" y="374" as="sourcePoint" />
            <mxPoint x="1018" y="370" as="targetPoint" />
          </mxGeometry>
        </mxCell>
        <mxCell id="Fjj-2CB6_kdFmA6w3Uss-132" value="" style="endArrow=none;html=1;rounded=0;" edge="1" parent="1">
          <mxGeometry width="50" height="50" relative="1" as="geometry">
            <mxPoint x="1004" y="374" as="sourcePoint" />
            <mxPoint x="1004" y="-252" as="targetPoint" />
          </mxGeometry>
        </mxCell>
        <mxCell id="Fjj-2CB6_kdFmA6w3Uss-133" value="" style="endArrow=classic;html=1;rounded=0;entryX=0;entryY=0.5;entryDx=0;entryDy=0;" edge="1" parent="1" target="Fjj-2CB6_kdFmA6w3Uss-91">
          <mxGeometry width="50" height="50" relative="1" as="geometry">
            <mxPoint x="1004" y="-252" as="sourcePoint" />
            <mxPoint x="1087" y="-266" as="targetPoint" />
          </mxGeometry>
        </mxCell>
      </root>
    </mxGraphModel>
  </diagram>
</mxfile>
